<?xml version="1.0" encoding="UTF-8" standalone="no"?>
<!-- Created with Inkscape (http://www.inkscape.org/) -->

<svg
   width="15.86284mm"
   height="16.596249mm"
   viewBox="0 0 15.86284 16.596249"
   version="1.1"
   id="svg1"
   xml:space="preserve"
   xmlns="http://www.w3.org/2000/svg"
   xmlns:svg="http://www.w3.org/2000/svg"><defs
     id="defs1" /><g
     id="layer1"
     transform="translate(-117.37029,-76.346037)"><path
       style="fill:#02ada1;fill-opacity:1;stroke-width:0.113053"
       d="m 124.36139,78.372144 c 0,0 -2.66217,1.890661 -3.24177,1.891034 -0.49314,3.21e-4 -3.44438,-1.992337 -3.44438,-1.992337 0,0 2.9138,-1.921938 3.44438,-1.924801 0.52187,-0.0028 3.24177,2.026104 3.24177,2.026104 z"
       id="path1" /><path
       style="fill:#02ada1;fill-opacity:1;stroke-width:0.113053"
       d="m 124.71582,78.968631 c 0,0 0.38387,3.242586 0.10647,3.751498 -0.23602,0.433001 -3.39915,2.068565 -3.39915,2.068565 0,0 -0.29074,-3.478438 -0.039,-3.945512 0.24775,-0.459323 3.3317,-1.874551 3.3317,-1.874551 z"
       id="path1-2" /><path
       style="fill:#02ada1;fill-opacity:1;stroke-width:0.113053"
       d="m 120.90306,84.69532 c 0,0 -3.02754,-1.223008 -3.34031,-1.710982 -0.26611,-0.415183 -0.17873,-3.975072 -0.17873,-3.975072 0,0 3.18953,1.418092 3.47796,1.86343 0.28356,0.438126 0.0411,3.822624 0.0411,3.822624 z"
       id="path1-2-0" /><path
       style="fill:#0184a0;fill-opacity:1;stroke-width:0.113053"
       d="m 132.67156,78.456052 c 0,0 -2.66217,1.890661 -3.24177,1.891034 -0.49315,3.2e-4 -3.44438,-1.992338 -3.44438,-1.992338 0,0 2.9138,-1.921938 3.44438,-1.9248 0.52187,-0.0028 3.24177,2.026104 3.24177,2.026104 z"
       id="path1-6" /><path
       style="fill:#0184a0;fill-opacity:1;stroke-width:0.113053"
       d="m 133.02599,79.052538 c 0,0 0.38387,3.242587 0.10647,3.751499 -0.23602,0.433 -3.39915,2.068564 -3.39915,2.068564 0,0 -0.29074,-3.478437 -0.039,-3.945512 0.24775,-0.459323 3.3317,-1.874551 3.3317,-1.874551 z"
       id="path1-2-2" /><path
       style="fill:#0184a0;fill-opacity:1;stroke-width:0.113053"
       d="m 129.21322,84.779226 c 0,0 -3.02753,-1.223007 -3.3403,-1.71098 -0.26611,-0.415184 -0.17873,-3.975073 -0.17873,-3.975073 0,0 3.18953,1.418092 3.47796,1.863431 0.28355,0.438125 0.0411,3.822622 0.0411,3.822622 z"
       id="path1-2-0-6" /><path
       style="fill:#008e9e;fill-opacity:1;stroke-width:0.113053"
       d="m 124.45154,86.345917 c 0,0 -2.66217,1.890661 -3.24177,1.891034 -0.49315,3.2e-4 -3.44438,-1.992337 -3.44438,-1.992337 0,0 2.9138,-1.921938 3.44438,-1.924801 0.52187,-0.0028 3.24177,2.026104 3.24177,2.026104 z"
       id="path1-20" /><path
       style="fill:#008e9e;fill-opacity:1;stroke-width:0.113053"
       d="m 124.80597,86.942403 c 0,0 0.38387,3.242587 0.10647,3.751499 -0.23602,0.433 -3.39915,2.068565 -3.39915,2.068565 0,0 -0.29074,-3.478438 -0.039,-3.945513 0.24775,-0.459323 3.3317,-1.874551 3.3317,-1.874551 z"
       id="path1-2-23" /><path
       style="fill:#008e9e;fill-opacity:1;stroke-width:0.113053"
       d="m 120.9932,92.669092 c 0,0 -3.02753,-1.223007 -3.3403,-1.710982 -0.26611,-0.415183 -0.17873,-3.975072 -0.17873,-3.975072 0,0 3.18953,1.418092 3.47796,1.86343 0.28355,0.438126 0.0411,3.822624 0.0411,3.822624 z"
       id="path1-2-0-7" /><path
       style="fill:#0157b0;fill-opacity:1;stroke-width:0.113053"
       d="m 132.96225,87.122222 c 0,0 0.38387,3.242586 0.10647,3.751498 -0.23602,0.433001 -3.39915,2.068565 -3.39915,2.068565 0,0 -0.29075,-3.478438 -0.039,-3.945513 0.24774,-0.459323 3.3317,-1.87455 3.3317,-1.87455 z"
       id="path1-2-9" /><path
       style="fill:#0157b0;fill-opacity:1;stroke-width:0.113053"
       d="m 129.14948,92.848911 c 0,0 -3.02753,-1.223008 -3.3403,-1.710982 -0.26611,-0.415184 -0.17873,-3.975072 -0.17873,-3.975072 0,0 3.18953,1.418091 3.47796,1.86343 0.28355,0.438125 0.0411,3.822624 0.0411,3.822624 z"
       id="path1-2-0-73" /><rect
       style="fill:#0184a0;fill-opacity:1;stroke-width:0.0498843"
       id="rect1"
       width="3.5894935"
       height="2.7186484"
       x="154.04701"
       y="8.2444553"
       ry="0"
       transform="matrix(0.85876587,0.5123682,-0.8550094,0.5186125,0,0)" /><path
       style="fill:#0157b0;fill-opacity:1;stroke-width:0.113053"
       d="m 132.60782,86.525735 c 0,0 -2.66217,1.890661 -3.24177,1.891034 -0.49315,3.2e-4 -3.44438,-1.992337 -3.44438,-1.992337 0,0 2.9138,-1.92194 3.44438,-1.9248 0.52186,-0.003 3.24177,2.026103 3.24177,2.026103 z"
       id="path1-8" /></g></svg>
